<?xml version="1.0" encoding="utf-8"?>
<!-- Generator: Adobe Illustrator 22.0.1, SVG Export Plug-In . SVG Version: 6.00 Build 0)  -->
<svg version="1.1" id="图层_1" xmlns="http://www.w3.org/2000/svg" xmlns:xlink="http://www.w3.org/1999/xlink" x="0px" y="0px"
	 viewBox="0 0 1366 768" style="enable-background:new 0 0 1366 768;" xml:space="preserve">
<style type="text/css">
	.st0{fill:#fff;}
</style>
<path class="st0" d="M715,160H555v64h160c88,0,160,72,160,160s-72,160-160,160h-96v-64h96c52.8,0,96-43.2,96-96s-43.2-96-96-96H555
	v96h64v-32h96c17.6,0,32,14.4,32,32s-14.4,32-32,32h-64h-32h-64h-32h-96v64h128v128h160c123.2,0,224-100.8,224-224
	S838.2,160,715,160z"/>
</svg>
